<svg xmlns="http://www.w3.org/2000/svg" viewBox="0 0 512 512"><g style="display:inline"><path d="m53.113 371.291-33.2-269.06h472.173l-33.198 269.06z" style="display:inline;fill:#2f83c8;fill-opacity:1;fill-rule:evenodd"/><path d="M53.113 371.291 256 512l75.926-66.562 53.117-30.076 15.546 12.307 58.3-56.378L256 246.597z" style="display:inline;fill:#61aeef;fill-opacity:1;fill-rule:evenodd"/><path d="M19.912 102.23 256 196.59l236.086-94.36L256 0Z" style="display:inline;fill:#b1d7f7;fill-opacity:1;fill-rule:evenodd"/><path d="m125.532 392.776-1.388-23.01L90 351.415l-3.532-46.901-16.853-8.585 5.706 69.177zm-7.249-120.164-1.547-25.652-35.856-16.662-3.935-52.257-17.684-7.658 6.347 76.947Zm96.054 46.103-.496-26.63-40.197-18.68-1.961-54.341-19.84-8.59 3.551 79.952zm2.315 124.279-.442-23.739-38.041-20.448-1.75-48.47-18.79-9.572 3.174 71.45z" style="display:inline;fill:#165385;fill-opacity:1;fill-rule:evenodd"/><path d="m19.912 102.23 27.776 288.646L256 512V196.589Zm39.349 68.153 54.273 23.503 4.749 78.726-52.675-25.282zm92.582 40.09 60.97 26.4 1.524 81.842-58.943-28.29zm-82.227 85.455 51.661 26.316 4.255 70.532-50.21-27.67zm88.014 44.837 57.665 29.375 1.357 72.854-55.849-30.778z" style="display:inline;fill:#1e70b4;fill-opacity:1;fill-rule:evenodd"/><path d="m393.736 272.484 1.56-25.659 35.875-16.702 3.949-52.215 17.675-7.658-6.357 76.876zm-96.304 46.339.524-26.677 40.326-18.776 2.007-54.379 19.879-8.612-3.61 79.995zM400.59 427.67l-15.547-12.308 5.67-93.209 17.614-9.005z" style="display:inline;fill:#165385;fill-opacity:1;fill-rule:evenodd"/><path d="M492.087 102.23 256 196.589V512l75.064-43.956 4.374-117.63 72.889-37.266-7.738 114.521 63.746-37.018 27.751-288.422zm-39.292 68.02-6.357 76.876-52.702 25.358 4.789-78.72zm-92.627 40.13-3.61 79.994-59.126 28.449 1.61-81.963z" style="fill:#4592d3;fill-opacity:1;fill-rule:evenodd"/></g></svg>